<?xml version="1.0" encoding="utf-8"?>
<svg id="r1" xmlns="http://www.w3.org/2000/svg" x="0px" y="0px"
	 viewBox="0 0 24 24" style="enable-background:new 0 0 24 24;" xml:space="preserve">
<style type="text/css">
	.st0{fill:none;}
	.st1{fill:#FFFFFF;}
</style>
<path class="st0" d="M0,0h24v24H0V0z"/>
<path class="st1" d="M17.6,6.3C16.2,4.9,14.2,4,12,4c-4.4,0-8,3.6-8,8s3.6,8,8,8c3.7,0,6.8-2.5,7.7-6h-2.1c-0.8,2.3-3,4-5.6,4
	c-3.3,0-6-2.7-6-6s2.7-6,6-6c1.7,0,3.1,0.7,4.2,1.8L13,11h7V4L17.6,6.3z"/>
</svg>
